# xmcd
#
# Track frame offsets:
#	150
#	13221
#	26707
#	36848
#	49766
#	61441
#	71418
#	82011
#	93923
#	106185
#	117103
#	128997
#	141252
#	154737
#	168606
#	180263
#	192396
#	205358
#	216844
#	228088
#
# Disc length: 3187 seconds
#
# Revision: 1
# Processed by: cddbd v1.5.2PL0 Copyright (c) Steve Scherf et al.
# Submitted via: audiograbber 1.83.01
#
DISCID=190c7114
DTITLE=Carl Smith - The Best Of 1951 - 1970
DYEAR=2013
DGENRE=Crossover
TTITLE0=In The Back Room Tonight
TTITLE1=I Love You Because
TTITLE2=Deep Water
TTITLE3=Let's Live A Little
TTITLE4=Back Up Buddy
TTITLE5=You Are The One
TTITLE6=Trademark
TTITLE7=Are You Teasing Me
TTITLE8=Kisses Don't Lie
TTITLE9=You Better Be better To Me
TTITLE10=How I Love Them Old Songs
TTITLE11=Cut Across Shorty
TTITLE12=Take My Ring Off Your Finger
TTITLE13=If Teardrops Were Pennies
TTITLE14=Loose Talk
TTITLE15=There She Goes
TTITLE16=Let Old Mother Nature Have Her Way
TTITLE17=Hey Joe!
TTITLE18=Why, Why
TTITLE19=Ten Thousand Drums
EXTD=
EXTT0=
EXTT1=
EXTT2=
EXTT3=
EXTT4=
EXTT5=
EXTT6=
EXTT7=
EXTT8=
EXTT9=
EXTT10=
EXTT11=
EXTT12=
EXTT13=
EXTT14=
EXTT15=
EXTT16=
EXTT17=
EXTT18=
EXTT19=
PLAYORDER=
